<svg id="svg" version="1.1" xmlns="http://www.w3.org/2000/svg" xmlns:xlink="http://www.w3.org/1999/xlink" width="400" height="400" viewBox="0, 0, 400,400"><g id="svgg"><path id="path0" d="M194.200 10.019 C 160.807 12.230,131.557 35.886,123.402 67.278 C 121.120 76.061,121.078 76.671,120.830 104.200 L 120.600 129.800 101.000 130.043 C 90.071 130.179,80.250 130.478,78.800 130.720 C 73.330 131.632,71.719 131.947,69.200 132.597 C 28.364 143.143,3.184 182.962,11.780 223.400 C 17.708 251.284,40.176 274.367,68.600 281.777 C 77.308 284.047,78.322 284.130,100.200 284.373 L 120.600 284.600 120.843 303.000 C 121.137 325.200,121.747 329.490,126.189 340.595 C 150.965 402.520,238.322 407.014,270.124 348.000 C 277.116 335.025,278.800 326.030,278.800 301.660 C 278.800 289.515,278.922 285.238,279.280 284.880 C 279.640 284.520,284.448 284.400,298.458 284.400 C 329.823 284.400,342.421 281.128,359.000 268.674 C 410.907 229.685,395.022 149.957,331.930 132.802 C 328.992 132.004,327.401 131.683,321.600 130.723 C 320.157 130.483,310.099 130.182,299.000 130.046 L 279.000 129.800 278.772 104.000 C 278.620 86.856,278.383 77.261,278.066 75.400 C 271.182 35.050,235.562 7.280,194.200 10.019 M208.269 39.398 C 218.579 41.071,228.363 46.008,235.615 53.200 C 266.554 83.881,243.619 134.324,198.700 134.393 L 194.000 134.400 194.000 122.451 L 194.000 110.503 199.500 110.301 C 222.496 109.459,233.643 85.552,218.197 70.200 C 203.906 55.995,179.380 63.039,175.427 82.483 C 174.879 85.176,174.798 91.482,174.788 132.283 L 174.776 179.000 169.720 183.000 C 166.939 185.200,161.680 189.385,158.032 192.299 C 154.384 195.214,151.220 197.539,151.000 197.466 C 150.314 197.238,150.464 82.088,151.155 78.600 C 156.366 52.291,181.480 35.053,208.269 39.398 M121.906 170.774 C 121.978 178.418,121.873 182.287,121.587 182.574 C 121.304 182.857,114.844 183.069,102.281 183.208 L 83.400 183.415 80.752 184.439 C 59.820 192.532,58.556 220.141,78.699 229.274 C 83.668 231.527,84.783 231.601,113.335 231.586 C 145.009 231.569,145.736 231.474,155.302 226.095 C 159.164 223.923,162.407 221.497,181.400 206.570 C 228.939 169.211,228.165 169.781,236.920 165.610 C 244.104 162.188,248.372 160.850,255.565 159.767 C 261.061 158.939,314.329 158.953,319.000 159.784 C 333.227 162.313,344.357 169.272,351.984 180.409 C 372.820 210.830,353.678 250.827,316.200 255.180 C 312.007 255.667,279.643 255.742,278.894 255.266 C 278.500 255.017,278.411 252.364,278.494 243.373 L 278.600 231.800 297.200 231.583 C 315.216 231.374,315.888 231.338,318.600 230.448 C 336.464 224.588,341.868 203.359,328.799 190.388 C 321.569 183.213,321.142 183.142,285.873 183.286 L 257.400 183.403 253.613 184.718 C 245.697 187.467,241.810 189.996,223.943 204.020 C 219.025 207.881,210.770 214.352,205.600 218.399 C 200.430 222.447,193.680 227.756,190.600 230.199 C 167.503 248.515,158.486 253.310,143.636 255.177 C 139.315 255.720,89.034 255.746,84.390 255.207 C 42.877 250.391,25.013 203.030,53.715 173.884 C 60.312 167.185,69.344 162.187,78.000 160.445 C 79.210 160.202,81.010 159.840,82.000 159.642 C 82.990 159.444,92.350 159.308,102.800 159.341 L 121.800 159.400 121.906 170.774 M249.198 266.724 C 249.195 320.588,249.216 320.052,246.797 327.273 C 241.406 343.365,228.773 355.002,211.800 359.511 C 207.069 360.768,194.239 361.095,190.000 360.066 C 169.565 355.108,156.120 341.874,151.328 322.000 C 150.407 318.181,150.041 283.596,150.914 282.871 C 151.347 282.512,154.469 282.415,163.048 282.494 L 174.600 282.600 174.829 299.600 C 175.020 313.730,175.169 316.968,175.715 318.782 C 182.292 340.651,212.149 343.417,222.196 323.088 C 224.789 317.840,224.771 318.187,224.786 274.713 L 224.800 235.625 226.900 234.046 C 228.055 233.177,233.383 229.032,238.741 224.835 C 244.098 220.637,248.643 217.303,248.841 217.425 C 249.050 217.554,249.199 238.162,249.198 266.724 M317.223 298.810 C 300.584 302.320,294.866 324.096,307.634 335.328 C 321.501 347.527,343.200 337.932,343.200 319.600 C 343.200 305.930,330.740 295.958,317.223 298.810 M326.200 301.745 C 337.874 304.868,343.292 318.324,337.184 329.023 C 329.616 342.279,310.145 340.018,305.231 325.313 C 300.769 311.959,312.999 298.213,326.200 301.745 M317.200 307.866 C 316.650 307.953,315.795 308.112,315.300 308.220 L 314.400 308.415 314.400 320.008 L 314.400 331.600 315.988 331.600 L 317.575 331.600 317.688 326.700 L 317.800 321.800 320.668 321.800 C 324.064 321.800,325.249 322.596,325.925 325.328 C 326.153 326.248,326.578 327.990,326.871 329.200 L 327.403 331.400 329.288 331.521 L 331.173 331.643 330.810 330.521 C 330.610 329.905,330.142 327.960,329.769 326.200 C 329.182 323.433,328.882 322.800,327.550 321.521 C 325.967 320.000,325.974 319.929,327.788 318.994 C 330.184 317.760,331.175 313.476,329.646 310.968 C 328.122 308.469,322.410 307.046,317.200 307.866 M324.679 311.133 C 329.420 313.684,326.396 319.005,320.367 318.721 L 317.800 318.600 317.800 314.600 L 317.800 310.600 319.400 310.393 C 321.256 310.154,323.423 310.457,324.679 311.133 " stroke="none" fill="#5d7c05" fill-rule="evenodd"></path><path id="path1" d="M0.056 99.500 C 0.088 156.202,0.260 198.054,0.454 196.800 C 0.642 195.590,0.910 193.652,1.048 192.493 C 1.187 191.334,1.458 190.288,1.650 190.169 C 1.843 190.050,2.000 189.481,2.000 188.905 C 2.000 188.328,2.171 187.304,2.380 186.628 C 2.589 185.953,3.340 183.510,4.049 181.200 C 5.301 177.122,5.571 176.378,7.019 173.000 C 8.641 169.217,12.357 162.276,12.871 162.067 C 13.052 161.993,13.200 161.755,13.200 161.537 C 13.200 161.318,14.055 159.995,15.100 158.597 C 16.145 157.198,17.360 155.550,17.800 154.935 C 19.221 152.950,25.857 145.698,28.000 143.790 C 33.526 138.870,37.326 136.054,42.985 132.686 C 50.055 128.478,62.316 123.200,65.023 123.200 C 65.534 123.200,66.052 123.040,66.173 122.844 C 66.406 122.466,67.222 122.288,72.000 121.567 C 73.650 121.318,75.360 120.961,75.800 120.773 C 77.173 120.186,81.725 119.961,96.289 119.758 L 110.378 119.562 110.557 99.681 C 110.737 79.701,110.953 74.523,111.632 73.820 C 111.835 73.611,112.000 72.813,112.000 72.046 C 112.000 70.633,112.972 66.067,113.586 64.600 C 113.770 64.160,114.223 62.720,114.593 61.400 C 115.497 58.179,118.289 51.095,119.677 48.500 C 123.264 41.793,123.234 41.843,127.103 36.424 C 130.527 31.628,138.229 23.638,143.600 19.309 C 147.075 16.509,154.901 11.200,155.555 11.200 C 155.800 11.200,156.000 11.062,156.000 10.894 C 156.000 10.573,158.920 9.200,159.603 9.200 C 159.821 9.200,160.000 9.064,160.000 8.898 C 160.000 8.731,160.585 8.347,161.300 8.044 C 164.278 6.782,165.123 6.440,167.600 5.497 C 172.845 3.500,182.195 1.049,187.600 0.256 C 188.150 0.175,146.165 0.084,94.300 0.054 L 0.000 0.000 0.056 99.500 M213.000 0.419 C 213.880 0.595,215.410 0.856,216.400 1.000 C 217.390 1.144,218.560 1.414,219.000 1.601 C 219.440 1.787,220.250 2.033,220.800 2.146 C 224.259 2.859,225.884 3.279,226.495 3.616 C 226.877 3.827,227.439 4.000,227.745 4.000 C 228.208 4.000,232.136 5.434,235.400 6.795 C 239.953 8.693,250.107 14.351,251.200 15.598 C 251.310 15.724,252.390 16.538,253.600 17.409 C 254.810 18.279,256.413 19.533,257.162 20.196 C 263.037 25.393,263.649 26.475,258.115 21.883 C 254.829 19.156,247.823 14.000,247.403 14.000 C 247.300 14.000,246.267 13.393,245.108 12.652 C 242.495 10.981,236.385 8.086,232.400 6.631 C 230.750 6.029,229.040 5.379,228.600 5.188 C 228.160 4.997,226.630 4.547,225.200 4.189 C 223.770 3.831,222.287 3.372,221.905 3.169 C 221.523 2.966,220.756 2.800,220.200 2.800 C 219.644 2.800,218.877 2.628,218.495 2.417 C 214.629 0.287,186.236 0.278,181.281 2.406 C 180.776 2.623,179.918 2.800,179.376 2.800 C 178.833 2.800,178.077 2.963,177.695 3.162 C 177.313 3.362,175.830 3.832,174.400 4.207 C 172.970 4.582,171.440 5.030,171.000 5.204 C 170.560 5.377,169.570 5.744,168.800 6.020 C 162.068 8.426,149.451 15.043,148.867 16.474 C 148.793 16.653,148.549 16.800,148.323 16.800 C 147.973 16.800,145.297 18.797,141.626 21.800 C 138.431 24.413,135.142 27.661,132.800 30.517 C 132.250 31.187,131.050 32.622,130.134 33.704 C 126.638 37.835,118.800 50.799,118.800 52.451 C 118.800 52.631,118.368 53.728,117.840 54.889 C 117.312 56.050,116.567 57.990,116.185 59.200 C 115.803 60.410,115.356 61.760,115.191 62.200 C 114.304 64.568,113.250 69.114,112.920 72.000 C 112.807 72.990,112.508 74.053,112.257 74.361 C 111.930 74.763,111.768 81.178,111.688 96.961 C 111.627 109.083,111.489 119.401,111.383 119.891 L 111.189 120.781 96.295 120.922 C 82.366 121.055,76.044 121.431,72.200 122.359 C 71.320 122.571,69.250 123.041,67.600 123.403 C 64.407 124.105,59.058 125.764,57.905 126.410 C 57.523 126.625,57.039 126.800,56.829 126.800 C 56.415 126.800,49.904 129.709,48.600 130.477 C 48.160 130.736,46.720 131.516,45.400 132.211 C 36.106 137.100,24.803 146.685,18.998 154.600 C 17.708 156.360,16.543 157.890,16.410 158.000 C 14.859 159.287,6.400 175.482,6.400 177.166 C 6.400 177.411,6.241 177.923,6.047 178.305 C 5.039 180.286,3.600 184.995,3.600 186.312 C 3.600 186.774,3.420 187.264,3.200 187.400 C 2.980 187.536,2.800 188.179,2.800 188.829 C 2.800 189.479,2.626 190.323,2.414 190.705 C 1.322 192.667,0.406 210.584,1.160 215.200 C 1.394 216.630,1.776 219.240,2.009 221.000 C 2.736 226.481,2.874 227.199,3.242 227.426 C 3.439 227.548,3.603 228.042,3.606 228.524 C 3.613 229.529,4.900 233.834,5.320 234.253 C 5.474 234.407,5.600 234.943,5.600 235.443 C 5.600 235.943,5.760 236.452,5.956 236.573 C 6.151 236.694,6.427 237.289,6.568 237.896 C 6.843 239.077,7.360 240.260,9.936 245.600 C 14.637 255.345,21.861 264.655,30.596 272.227 C 37.549 278.253,50.556 285.746,59.000 288.589 C 60.100 288.959,61.360 289.408,61.800 289.585 C 62.767 289.976,65.160 290.654,67.600 291.229 C 68.590 291.462,70.120 291.825,71.000 292.035 C 76.720 293.400,86.813 294.077,99.318 293.935 C 110.969 293.803,111.239 293.818,111.399 294.600 C 111.489 295.040,111.627 302.001,111.706 310.068 C 111.801 319.779,111.995 324.916,112.282 325.268 C 112.520 325.561,112.807 326.610,112.920 327.600 C 113.250 330.486,114.304 335.032,115.191 337.400 C 115.356 337.840,115.804 339.190,116.186 340.400 C 116.569 341.610,117.224 343.363,117.641 344.296 C 118.058 345.228,118.400 346.140,118.400 346.321 C 118.400 346.956,123.162 356.001,124.911 358.688 C 129.301 365.433,134.711 371.786,139.955 376.354 C 141.630 377.813,143.720 379.536,144.600 380.182 C 145.480 380.829,146.290 381.467,146.400 381.600 C 146.510 381.733,147.280 382.255,148.111 382.760 C 148.941 383.265,149.841 383.898,150.111 384.167 C 151.563 385.615,164.416 392.400,165.708 392.400 C 166.001 392.400,166.411 392.554,166.620 392.742 C 166.829 392.930,167.990 393.387,169.200 393.758 C 170.410 394.128,171.760 394.581,172.200 394.766 C 173.696 395.392,177.467 396.400,178.312 396.400 C 178.774 396.400,179.252 396.561,179.374 396.758 C 179.618 397.152,180.836 397.374,186.200 398.002 C 188.180 398.233,190.568 398.598,191.506 398.812 C 193.717 399.315,205.883 399.315,208.094 398.812 C 209.032 398.598,211.330 398.245,213.200 398.028 C 218.037 397.466,219.688 397.197,220.600 396.819 C 221.040 396.637,222.570 396.179,224.000 395.800 C 225.430 395.421,226.960 394.976,227.400 394.810 C 227.840 394.645,229.190 394.190,230.400 393.799 C 231.610 393.408,232.771 392.933,232.980 392.744 C 233.189 392.555,233.596 392.400,233.883 392.400 C 236.345 392.400,252.279 383.042,256.411 379.170 C 256.746 378.857,258.005 377.791,259.210 376.802 C 261.511 374.912,266.951 369.356,267.954 367.871 C 268.277 367.392,269.149 366.280,269.891 365.400 C 271.775 363.166,271.739 363.215,274.236 359.547 C 276.345 356.449,282.400 344.661,282.400 343.652 C 282.400 343.397,282.569 342.877,282.777 342.495 C 282.984 342.113,283.452 340.720,283.817 339.400 C 284.181 338.080,284.621 336.640,284.794 336.200 C 285.534 334.319,286.290 331.035,287.283 325.400 C 287.515 324.080,287.776 316.614,287.863 308.810 C 287.949 301.005,288.175 294.465,288.365 294.275 C 288.836 293.804,303.758 293.875,303.916 294.349 C 303.985 294.555,303.087 295.396,301.921 296.219 C 294.018 301.794,289.457 316.731,292.337 327.600 C 293.702 332.750,297.742 339.506,301.096 342.249 C 304.376 344.929,310.746 348.400,312.387 348.400 C 312.808 348.400,313.252 348.561,313.374 348.758 C 314.154 350.020,328.913 350.062,330.600 348.808 C 330.820 348.644,331.533 348.382,332.185 348.226 C 334.284 347.723,338.516 345.480,341.194 343.452 C 342.627 342.367,344.250 341.354,344.800 341.201 C 345.426 341.027,345.776 340.659,345.737 340.217 C 345.702 339.828,346.437 338.316,347.369 336.855 C 348.301 335.395,349.565 332.940,350.178 331.400 C 350.792 329.860,351.497 328.168,351.747 327.639 C 352.373 326.312,352.360 312.849,351.731 311.561 C 351.473 311.032,350.943 309.700,350.552 308.600 C 350.162 307.500,349.528 306.027,349.143 305.326 C 348.162 303.541,346.329 300.639,346.031 300.400 C 345.894 300.290,345.462 299.698,345.071 299.083 C 344.185 297.693,338.560 293.485,336.177 292.431 C 334.436 291.661,333.906 290.915,334.900 290.633 C 362.375 282.821,384.643 262.927,393.812 238.000 C 394.176 237.010,394.610 235.840,394.775 235.400 C 395.622 233.144,396.400 230.400,396.400 229.670 C 396.400 229.217,396.560 228.748,396.756 228.627 C 397.130 228.396,397.200 228.081,398.219 222.000 C 399.814 212.486,399.428 192.421,397.586 189.105 C 397.374 188.723,397.200 188.057,397.200 187.624 C 397.200 187.192,397.039 186.424,396.842 185.919 C 396.646 185.413,396.171 183.920,395.786 182.600 C 395.009 179.928,394.769 179.255,393.841 177.140 C 393.488 176.336,393.200 175.479,393.200 175.234 C 393.200 174.989,393.039 174.477,392.842 174.095 C 392.645 173.713,391.641 171.607,390.612 169.415 C 389.582 167.223,387.724 163.893,386.483 162.015 C 385.242 160.137,384.041 158.307,383.814 157.948 C 378.897 150.198,369.833 141.686,358.600 134.271 C 356.158 132.659,344.349 126.800,343.541 126.800 C 343.222 126.800,342.789 126.652,342.580 126.471 C 342.371 126.290,341.120 125.814,339.800 125.415 C 338.480 125.015,337.040 124.545,336.600 124.370 C 335.868 124.078,334.122 123.654,328.600 122.425 C 324.080 121.420,318.235 121.065,303.815 120.922 C 292.475 120.810,288.552 120.649,288.321 120.286 C 288.151 120.019,288.009 110.161,288.006 98.380 C 288.003 86.105,287.845 76.798,287.637 76.580 C 287.437 76.371,287.182 75.300,287.070 74.200 C 286.684 70.402,285.708 65.757,284.801 63.400 C 284.632 62.960,284.174 61.520,283.785 60.200 C 283.396 58.880,282.655 56.850,282.139 55.689 C 281.622 54.528,281.200 53.424,281.200 53.235 C 281.200 52.737,278.147 46.657,276.261 43.400 C 274.885 41.024,269.895 33.965,268.601 32.566 C 268.381 32.327,267.573 31.337,266.808 30.366 C 266.042 29.395,264.718 27.914,263.865 27.076 C 263.013 26.237,262.398 25.469,262.499 25.368 C 262.600 25.266,263.926 26.492,265.444 28.092 C 276.545 39.782,283.113 52.078,287.188 68.800 C 288.664 74.858,289.106 82.547,289.158 103.081 L 289.200 119.563 303.700 119.747 C 311.675 119.849,319.550 120.117,321.200 120.342 C 328.684 121.365,330.259 121.629,331.119 122.002 C 331.624 122.221,332.469 122.400,332.995 122.400 C 333.522 122.400,334.064 122.580,334.200 122.800 C 334.336 123.020,334.776 123.200,335.178 123.200 C 335.579 123.200,336.874 123.490,338.054 123.844 C 340.245 124.501,340.748 124.682,343.200 125.699 C 343.970 126.019,345.230 126.519,346.000 126.811 C 354.592 130.071,366.418 138.067,374.382 146.003 C 388.709 160.278,395.446 173.266,399.589 194.600 C 399.760 195.480,399.922 152.055,399.950 98.100 L 400.000 0.000 305.700 0.050 C 253.835 0.078,212.120 0.244,213.000 0.419 M206.600 9.402 C 212.960 10.029,213.413 10.097,217.800 11.068 C 227.374 13.188,245.167 21.385,248.400 25.166 C 248.510 25.295,249.500 26.113,250.600 26.984 C 263.705 37.363,274.360 54.423,277.714 70.400 C 278.061 72.050,278.572 74.390,278.851 75.600 C 279.223 77.214,279.398 84.647,279.508 103.500 L 279.657 129.200 294.729 129.205 C 318.468 129.214,327.387 130.228,338.800 134.217 C 350.971 138.471,364.110 147.600,372.440 157.590 C 373.628 159.015,374.825 160.423,375.100 160.719 C 377.435 163.232,381.839 171.059,385.499 179.200 C 390.338 189.965,392.276 207.536,389.954 219.600 C 388.989 224.612,388.331 227.440,387.976 228.095 C 387.769 228.477,387.600 229.013,387.600 229.286 C 387.600 230.886,382.870 241.762,380.167 246.376 C 370.132 263.508,351.324 277.572,331.771 282.565 C 323.627 284.644,320.778 284.874,299.800 285.143 L 279.800 285.400 279.550 303.600 C 279.294 322.271,279.221 323.197,277.417 330.679 C 275.834 337.244,271.484 347.772,268.747 351.662 C 268.336 352.246,268.000 352.854,268.000 353.015 C 268.000 355.905,253.141 371.323,245.400 376.465 C 235.517 383.030,226.151 387.008,216.000 388.954 C 209.385 390.223,207.397 390.400,199.800 390.400 C 195.451 390.400,190.701 390.204,189.246 389.965 C 185.599 389.365,180.841 388.409,179.400 387.987 C 175.863 386.952,171.352 385.411,171.020 385.126 C 170.811 384.947,170.389 384.800,170.083 384.800 C 169.079 384.800,159.476 379.958,156.000 377.699 C 142.338 368.822,130.555 354.445,125.430 340.400 C 124.828 338.750,124.180 337.040,123.989 336.600 C 123.638 335.789,122.601 332.154,121.992 329.600 C 120.398 322.917,120.007 317.086,120.003 299.949 L 120.000 285.297 100.100 285.090 C 82.167 284.904,79.730 284.800,75.445 284.037 C 56.365 280.640,40.012 271.159,26.822 255.847 C 24.086 252.671,19.437 245.301,17.344 240.823 C 16.156 238.280,15.043 235.930,14.870 235.600 C 14.698 235.270,14.043 233.380,13.416 231.400 C 12.789 229.420,12.141 227.440,11.977 227.000 C 11.625 226.055,10.643 221.285,10.033 217.554 C 9.469 214.104,9.475 200.137,10.042 197.024 C 10.960 191.982,11.676 188.553,12.092 187.200 C 13.339 183.145,13.903 181.538,14.793 179.500 C 15.010 179.005,15.685 177.430,16.294 176.000 C 25.697 153.929,47.631 136.374,72.231 131.229 C 78.972 129.820,83.071 129.557,101.867 129.329 L 119.934 129.110 120.129 103.855 C 120.245 88.853,120.494 77.707,120.742 76.400 C 120.972 75.190,121.330 73.300,121.537 72.200 C 122.025 69.611,123.494 64.028,123.958 63.000 C 124.157 62.560,124.544 61.570,124.820 60.800 C 132.968 38.002,153.738 18.736,177.000 12.396 C 177.660 12.216,179.218 11.790,180.463 11.449 C 183.884 10.512,187.280 9.950,192.800 9.406 C 199.638 8.732,199.808 8.732,206.600 9.402 M192.000 40.040 C 180.886 42.228,172.969 46.136,165.991 52.879 C 158.834 59.795,155.320 65.806,152.496 75.962 L 151.428 79.800 151.303 131.200 C 151.143 196.753,151.147 197.079,152.200 196.111 C 152.640 195.707,153.720 194.842,154.600 194.190 C 155.480 193.538,156.290 192.910,156.400 192.795 C 156.861 192.311,172.966 179.503,173.651 179.075 C 174.376 178.623,174.400 177.094,174.400 131.296 C 174.400 78.724,174.272 81.386,177.068 75.864 C 183.419 63.324,199.088 58.492,212.180 65.037 C 236.164 77.026,226.561 110.800,199.168 110.800 L 194.400 110.800 194.400 122.200 L 194.400 133.600 199.160 133.600 C 246.498 133.600,267.053 76.878,229.800 49.046 C 220.040 41.754,203.414 37.793,192.000 40.040 M85.000 159.857 C 81.597 160.256,77.709 160.906,77.000 161.195 C 76.560 161.374,75.120 161.830,73.800 162.209 C 60.730 165.964,47.756 178.371,43.278 191.400 C 32.890 221.619,52.713 251.297,85.600 254.762 C 91.218 255.354,138.516 255.359,142.493 254.768 C 155.228 252.875,166.562 248.018,177.000 239.978 C 179.795 237.825,194.146 226.597,200.758 221.390 C 208.258 215.484,215.676 209.670,217.732 208.087 C 219.465 206.754,228.090 199.915,229.600 198.678 C 229.930 198.408,230.920 197.650,231.800 196.993 C 232.679 196.337,233.748 195.485,234.175 195.100 C 234.602 194.715,235.069 194.400,235.214 194.400 C 235.359 194.400,235.910 194.022,236.439 193.559 C 240.299 190.181,249.309 185.266,254.800 183.542 L 257.800 182.600 287.200 182.600 C 314.405 182.600,316.746 182.653,318.552 183.313 C 342.295 191.984,342.716 222.882,319.200 230.957 C 315.544 232.212,312.513 232.400,295.927 232.400 L 279.200 232.400 279.200 243.800 L 279.200 255.200 294.900 255.192 C 311.097 255.184,317.848 254.749,323.000 253.381 C 324.320 253.030,325.897 252.645,326.505 252.526 C 327.113 252.406,327.708 252.149,327.829 251.954 C 327.949 251.759,328.302 251.600,328.613 251.600 C 330.412 251.600,337.619 247.440,342.252 243.728 C 357.207 231.743,363.237 212.218,357.733 193.600 C 352.783 176.853,337.835 163.883,319.400 160.338 C 312.278 158.969,253.533 159.733,250.705 161.232 C 250.323 161.434,249.692 161.600,249.302 161.600 C 247.397 161.600,238.580 165.261,233.000 168.369 C 227.491 171.438,225.333 172.973,213.820 182.010 C 209.189 185.645,202.185 191.135,198.256 194.210 C 194.327 197.284,189.273 201.240,187.024 203.000 C 184.776 204.760,182.334 206.650,181.597 207.200 C 180.520 208.004,176.279 211.377,172.400 214.515 C 168.960 217.297,164.251 220.885,162.800 221.829 C 161.810 222.473,160.651 223.315,160.225 223.700 C 159.798 224.085,159.316 224.400,159.153 224.400 C 158.990 224.400,158.582 224.675,158.246 225.011 C 156.189 227.069,147.302 230.843,142.256 231.802 C 137.404 232.725,88.648 232.682,84.148 231.751 C 59.109 226.573,56.381 193.500,80.200 183.896 L 83.400 182.606 102.200 182.403 L 121.000 182.200 121.000 171.000 L 121.000 159.800 103.600 159.758 C 94.030 159.735,85.660 159.779,85.000 159.857 M0.059 307.700 L 0.000 400.000 95.700 399.946 C 148.335 399.916,190.950 399.826,190.400 399.747 C 186.522 399.190,183.599 398.693,182.400 398.387 C 181.630 398.190,179.740 397.740,178.200 397.387 C 167.377 394.905,151.180 387.218,145.495 381.867 C 145.222 381.610,144.099 380.691,142.999 379.824 C 130.751 370.172,117.632 351.258,114.960 339.400 C 114.811 338.740,114.559 338.020,114.399 337.800 C 114.238 337.580,114.008 336.950,113.887 336.400 C 113.765 335.850,113.293 333.960,112.838 332.200 C 112.382 330.440,112.007 328.361,112.005 327.580 C 112.002 326.799,111.835 325.989,111.632 325.780 C 111.029 325.157,110.758 320.498,110.558 307.300 L 110.368 294.800 97.084 294.765 C 89.778 294.746,82.270 294.568,80.400 294.369 C 78.530 294.170,76.010 293.899,74.800 293.767 C 73.590 293.635,72.429 293.363,72.220 293.163 C 72.011 292.963,71.411 292.800,70.886 292.800 C 69.750 292.800,64.893 291.654,63.905 291.152 C 63.523 290.959,62.936 290.800,62.600 290.800 C 62.264 290.800,61.677 290.638,61.295 290.441 C 60.913 290.243,59.250 289.589,57.600 288.986 C 42.752 283.568,27.213 272.106,17.800 259.631 C 16.920 258.465,16.011 257.306,15.779 257.055 C 11.808 252.758,4.670 237.296,2.613 228.536 C 2.260 227.031,1.807 225.170,1.606 224.400 C 1.191 222.808,0.836 220.784,0.411 217.600 C 0.250 216.390,0.091 256.935,0.059 307.700 M246.754 219.313 C 246.179 219.801,244.760 220.920,243.602 221.800 C 242.444 222.680,239.585 224.933,237.248 226.806 C 234.912 228.679,231.380 231.459,229.400 232.982 C 227.420 234.506,225.710 235.824,225.600 235.910 C 225.490 235.996,225.306 254.456,225.192 276.933 C 224.998 315.051,224.935 317.935,224.260 319.800 C 221.097 328.541,214.836 334.567,206.983 336.429 C 205.892 336.687,204.587 337.057,204.081 337.249 C 202.802 337.737,197.430 337.688,195.446 337.170 C 194.541 336.934,193.080 336.560,192.200 336.340 C 184.881 334.509,177.809 327.658,175.642 320.300 C 175.399 319.475,175.020 318.202,174.800 317.472 C 174.561 316.679,174.400 309.500,174.400 299.672 L 174.400 283.200 162.768 283.200 L 151.137 283.200 151.311 301.500 C 151.483 319.522,151.501 319.858,152.495 323.600 C 165.917 374.111,238.970 371.352,247.801 320.000 C 248.438 316.295,248.726 218.386,248.100 218.413 C 247.935 218.420,247.329 218.825,246.754 219.313 M399.426 220.500 C 398.848 224.897,398.705 225.611,398.358 225.826 C 398.161 225.948,398.000 226.498,398.000 227.048 C 398.000 230.206,392.598 244.173,389.200 249.800 C 388.536 250.900,387.883 252.115,387.750 252.500 C 387.616 252.885,387.389 253.200,387.244 253.200 C 387.100 253.200,386.643 253.830,386.228 254.600 C 385.813 255.370,385.322 256.000,385.137 256.000 C 384.952 256.000,384.800 256.195,384.800 256.433 C 384.800 256.779,382.475 259.946,381.594 260.800 C 381.480 260.910,380.876 261.630,380.251 262.400 C 377.980 265.198,370.675 272.444,367.609 274.938 C 362.522 279.077,347.268 288.000,345.280 288.000 C 345.099 288.000,344.174 288.375,343.226 288.833 C 342.277 289.291,340.889 289.766,340.141 289.887 C 339.393 290.008,338.684 290.264,338.567 290.454 C 338.449 290.644,338.003 290.800,337.576 290.800 C 336.193 290.800,336.788 291.768,339.052 293.200 C 342.503 295.382,349.200 302.373,349.200 303.792 C 349.200 303.948,349.533 304.554,349.941 305.138 C 350.348 305.722,350.997 307.100,351.383 308.200 C 351.769 309.300,352.233 310.560,352.415 311.000 C 353.385 313.348,353.920 322.483,353.229 324.900 C 352.993 325.725,352.589 327.165,352.332 328.100 C 351.677 330.482,350.135 333.770,348.311 336.678 C 347.010 338.751,346.798 339.380,347.012 340.523 C 347.285 341.977,346.743 342.381,344.502 342.395 C 344.008 342.398,342.541 343.256,341.243 344.303 C 339.944 345.349,337.738 346.770,336.341 347.460 C 334.073 348.579,332.858 348.997,327.600 350.465 C 325.940 350.928,317.366 350.679,314.800 350.093 C 291.345 344.735,282.337 315.125,298.995 298.140 C 302.454 294.613,302.591 294.719,294.800 294.885 L 289.400 295.000 289.116 308.897 C 288.946 317.174,288.663 323.108,288.416 323.571 C 288.187 323.998,288.000 325.008,288.000 325.816 C 288.000 327.454,286.927 332.618,286.364 333.695 C 286.164 334.077,286.000 334.754,286.000 335.200 C 286.000 335.646,285.845 336.323,285.656 336.705 C 285.466 337.087,284.718 339.200,283.993 341.400 C 283.268 343.600,282.163 346.509,281.538 347.865 C 280.912 349.220,280.400 350.510,280.400 350.731 C 280.400 350.952,280.265 351.193,280.100 351.267 C 279.935 351.340,279.105 352.750,278.255 354.400 C 276.871 357.089,272.038 364.286,270.692 365.663 C 270.403 365.959,269.883 366.612,269.535 367.116 C 265.159 373.454,250.402 385.526,241.800 389.806 C 240.480 390.463,239.340 391.135,239.267 391.300 C 239.193 391.465,238.876 391.600,238.561 391.600 C 238.247 391.600,237.677 391.774,237.295 391.986 C 235.968 392.723,232.981 393.889,229.600 394.991 C 227.730 395.600,225.840 396.246,225.400 396.426 C 223.824 397.071,214.624 399.008,210.400 399.583 C 209.190 399.748,251.355 399.909,304.100 399.941 L 400.000 400.000 400.000 309.200 C 400.000 259.260,399.933 218.400,399.851 218.400 C 399.769 218.400,399.578 219.345,399.426 220.500 M327.268 298.240 C 333.242 299.750,339.556 304.866,341.906 310.100 C 342.178 310.705,342.581 311.605,342.802 312.100 C 347.633 322.930,339.555 337.786,327.188 340.813 C 323.342 341.755,314.937 341.193,314.165 339.943 C 314.048 339.754,313.689 339.600,313.367 339.600 C 309.644 339.600,300.400 328.777,300.400 324.418 C 300.400 323.943,300.194 322.738,299.943 321.739 C 299.234 318.923,300.464 312.953,302.527 309.200 C 307.327 300.469,317.775 295.840,327.268 298.240 M317.200 302.482 C 313.484 304.071,312.558 304.607,310.934 306.104 C 295.564 320.271,312.361 345.104,330.497 335.026 C 341.546 328.886,341.999 311.699,331.298 304.618 C 327.680 302.223,320.388 301.118,317.200 302.482 M325.754 307.667 C 331.618 309.330,333.140 315.758,328.485 319.201 L 327.322 320.060 328.425 321.163 C 329.547 322.285,329.814 323.014,331.115 328.495 C 331.959 332.050,331.806 332.403,329.420 332.394 C 326.924 332.384,326.659 331.967,325.237 325.800 C 324.682 323.391,323.818 322.584,321.409 322.222 C 318.076 321.722,318.040 321.775,317.912 327.323 L 317.800 332.200 316.652 332.331 C 316.020 332.403,315.072 332.354,314.546 332.222 L 313.588 331.982 313.694 319.909 L 313.800 307.836 314.800 307.558 C 316.468 307.094,323.998 307.169,325.754 307.667 M318.000 314.800 L 318.000 318.400 320.151 318.400 C 323.878 318.400,326.000 317.043,326.000 314.659 C 326.000 312.171,324.489 311.200,320.620 311.200 L 318.000 311.200 318.000 314.800 " stroke="none" fill="#fbfbfb" fill-rule="evenodd"></path><path id="path2" d="M192.200 9.431 C 184.862 10.137,175.857 12.374,169.800 14.997 C 169.140 15.283,167.610 15.934,166.400 16.444 C 165.190 16.954,163.148 17.963,161.862 18.686 C 160.575 19.409,159.452 20.000,159.366 20.000 C 159.279 20.000,157.901 20.834,156.304 21.852 C 137.828 33.638,124.555 53.589,121.211 74.600 C 120.966 76.140,120.656 77.940,120.523 78.600 C 120.389 79.260,120.172 90.960,120.040 104.600 L 119.800 129.400 102.000 129.608 L 84.200 129.817 102.400 129.808 L 120.600 129.800 120.830 104.200 C 121.104 73.676,121.436 70.886,126.207 58.961 C 144.068 14.318,199.220 -3.924,240.883 21.032 C 259.005 31.887,271.912 49.215,276.763 69.200 C 278.461 76.196,278.537 77.524,278.772 104.000 L 279.000 129.800 299.000 130.046 C 310.099 130.182,320.157 130.483,321.600 130.723 C 327.401 131.683,328.992 132.004,331.930 132.802 C 395.022 149.957,410.907 229.685,359.000 268.674 C 342.421 281.128,329.823 284.400,298.458 284.400 C 284.448 284.400,279.640 284.520,279.280 284.880 C 278.922 285.238,278.800 289.515,278.800 301.660 C 278.800 326.030,277.116 335.025,270.124 348.000 C 238.322 407.014,150.965 402.520,126.189 340.595 C 121.747 329.490,121.137 325.200,120.843 303.000 L 120.600 284.600 100.200 284.373 C 78.322 284.130,77.308 284.047,68.600 281.777 C 17.671 268.501,-5.957 210.300,21.922 166.800 C 35.001 146.393,54.795 134.093,80.200 130.585 L 84.200 130.033 80.327 130.204 C 78.196 130.298,75.676 130.553,74.727 130.771 C 61.210 133.874,55.530 136.086,46.000 141.955 C 30.776 151.330,17.535 168.587,12.818 185.200 C 12.537 186.190,12.160 187.450,11.979 188.000 C 11.668 188.951,10.940 192.580,10.020 197.767 C 9.045 203.262,9.623 216.161,11.168 223.400 C 11.942 227.027,14.264 234.304,14.863 234.980 C 15.048 235.189,15.200 235.622,15.200 235.941 C 15.200 236.872,19.818 245.798,22.136 249.348 C 33.274 266.406,53.446 279.949,72.800 283.364 C 74.890 283.732,77.590 284.222,78.800 284.452 C 80.022 284.684,89.643 284.968,100.448 285.091 L 119.896 285.311 120.112 302.756 C 120.335 320.858,120.650 324.572,122.557 331.600 C 134.156 374.362,177.640 399.079,221.200 387.670 C 223.428 387.086,227.736 385.624,228.495 385.194 C 228.877 384.977,229.365 384.800,229.579 384.800 C 230.323 384.800,237.719 381.177,241.417 379.000 C 259.851 368.151,273.532 349.055,277.956 328.000 C 279.135 322.385,279.285 319.932,279.474 303.155 L 279.675 285.310 299.538 285.085 C 319.883 284.854,320.404 284.817,329.341 282.943 C 351.889 278.215,373.007 261.704,382.731 241.200 C 387.003 232.191,387.909 229.428,390.071 218.800 C 390.784 215.296,390.779 199.606,390.064 195.800 C 389.611 193.388,388.906 190.390,387.619 185.400 C 382.030 163.725,361.330 142.201,338.399 134.219 C 327.137 130.299,323.982 129.921,300.200 129.640 L 279.800 129.400 279.564 104.200 C 279.311 77.208,279.259 76.456,277.056 68.000 C 272.223 49.449,260.426 33.061,244.298 22.494 C 240.157 19.781,231.448 15.222,230.380 15.208 C 230.039 15.204,229.589 15.048,229.380 14.863 C 228.317 13.920,219.225 11.299,213.168 10.189 C 209.938 9.596,195.796 9.085,192.200 9.431 M191.000 39.465 C 170.948 43.083,155.108 58.640,151.155 78.600 C 150.464 82.088,150.314 197.238,151.000 197.466 C 151.220 197.539,154.384 195.214,158.032 192.299 C 161.680 189.385,166.939 185.200,169.720 183.000 L 174.776 179.000 174.788 132.283 C 174.798 91.482,174.879 85.176,175.427 82.483 C 179.380 63.039,203.906 55.995,218.197 70.200 C 233.643 85.552,222.496 109.459,199.500 110.301 L 194.000 110.503 194.000 122.451 L 194.000 134.400 198.700 134.393 C 243.619 134.324,266.554 83.881,235.615 53.200 C 224.304 41.984,206.839 36.607,191.000 39.465 M209.898 40.433 C 251.171 48.322,263.138 99.113,229.600 124.052 C 221.244 130.266,212.517 133.139,200.900 133.501 L 194.400 133.704 194.400 122.252 L 194.400 110.800 198.968 110.800 C 229.880 110.800,235.929 70.704,206.200 62.861 C 192.154 59.156,178.714 67.632,174.826 82.646 C 174.536 83.766,174.398 99.385,174.394 131.446 L 174.388 178.600 168.694 183.084 C 165.562 185.550,160.869 189.284,158.265 191.381 C 155.661 193.479,153.001 195.572,152.355 196.032 L 151.180 196.869 151.301 138.135 L 151.423 79.400 152.500 75.532 C 159.602 50.045,183.556 35.397,209.898 40.433 M82.618 159.545 C 81.969 159.685,90.386 159.739,101.325 159.665 L 121.213 159.529 121.106 170.865 L 121.000 182.200 102.600 182.427 C 82.445 182.676,82.638 182.655,77.432 185.242 C 70.390 188.743,63.914 198.012,64.049 204.400 C 64.084 206.065,64.126 205.987,64.607 203.359 C 66.205 194.628,72.018 187.816,80.752 184.439 L 83.400 183.415 102.281 183.208 C 114.844 183.069,121.304 182.857,121.587 182.574 C 121.873 182.287,121.978 178.418,121.906 170.774 L 121.800 159.400 102.800 159.345 C 92.350 159.315,83.268 159.405,82.618 159.545 M256.800 159.553 C 256.030 159.689,269.700 159.800,287.177 159.800 C 304.655 159.800,318.425 159.686,317.777 159.547 C 316.257 159.221,258.648 159.226,256.800 159.553 M76.400 160.786 C 40.321 170.696,27.725 213.175,52.944 239.889 C 61.289 248.729,71.523 253.714,84.390 255.207 C 89.034 255.746,139.315 255.720,143.636 255.177 C 158.486 253.310,167.503 248.515,190.600 230.199 C 193.680 227.756,200.430 222.447,205.600 218.399 C 210.770 214.352,219.025 207.881,223.943 204.020 C 241.810 189.996,245.697 187.467,253.613 184.718 L 257.400 183.403 285.873 183.286 C 317.663 183.156,317.140 183.119,322.782 185.904 C 328.197 188.577,335.082 196.936,335.228 201.015 C 335.244 201.447,335.427 202.160,335.635 202.600 C 335.907 203.176,335.950 202.896,335.789 201.600 C 335.074 195.865,329.158 188.426,322.800 185.267 C 316.882 182.328,317.073 182.342,285.630 182.498 L 257.800 182.636 254.400 183.758 C 247.273 186.109,239.754 190.777,227.748 200.303 C 221.678 205.120,208.579 215.395,206.209 217.200 C 203.948 218.922,188.893 230.727,182.200 236.027 C 167.558 247.620,156.945 252.732,143.293 254.767 C 138.664 255.457,89.313 255.343,84.000 254.630 C 61.137 251.562,44.477 236.121,41.018 214.789 C 36.915 189.489,53.170 166.717,79.800 160.459 C 81.208 160.128,81.256 160.082,80.200 160.077 C 79.540 160.075,77.830 160.394,76.400 160.786 M249.800 160.797 C 234.972 164.552,234.256 165.032,181.400 206.570 C 147.457 233.245,152.029 231.565,113.335 231.586 C 84.783 231.601,83.668 231.527,78.699 229.274 C 71.150 225.851,66.308 219.662,64.560 211.200 L 64.022 208.600 64.208 211.000 C 64.915 220.122,73.271 229.105,83.400 231.633 C 86.170 232.324,135.537 232.639,140.400 231.997 C 146.697 231.165,152.520 228.740,159.361 224.100 C 163.925 221.005,165.473 219.819,185.600 204.005 C 202.875 190.432,218.086 178.529,221.558 175.868 C 228.608 170.463,235.430 166.572,243.800 163.181 C 245.321 162.565,250.671 161.087,253.600 160.473 C 255.299 160.117,255.322 160.096,254.000 160.092 C 253.230 160.090,251.340 160.407,249.800 160.797 M319.800 160.400 C 320.240 160.589,321.013 160.756,321.518 160.772 C 324.336 160.858,333.080 164.457,337.732 167.445 C 371.633 189.219,365.304 239.264,327.000 252.299 C 319.743 254.769,315.164 255.193,295.700 255.197 L 279.200 255.200 279.200 243.829 L 279.200 232.458 297.100 232.286 C 316.509 232.099,316.938 232.056,321.930 229.768 C 329.149 226.458,336.169 217.516,335.968 211.886 C 335.949 211.342,335.863 211.232,335.745 211.600 C 335.640 211.930,335.187 213.344,334.738 214.743 C 332.353 222.181,326.531 227.847,318.600 230.448 C 315.888 231.338,315.216 231.374,297.200 231.583 L 278.600 231.800 278.494 243.373 C 278.411 252.364,278.500 255.017,278.894 255.266 C 279.643 255.742,312.007 255.667,316.200 255.180 C 370.456 248.878,376.413 174.874,323.800 160.769 C 320.826 159.972,318.251 159.734,319.800 160.400 M336.100 207.200 C 336.100 210.174,336.164 210.609,336.392 209.200 C 336.553 208.210,336.553 206.500,336.392 205.400 C 336.149 203.738,336.100 204.043,336.100 207.200 M238.741 224.835 C 233.383 229.032,228.055 233.177,226.900 234.046 L 224.800 235.625 224.786 274.713 C 224.771 318.187,224.789 317.840,222.196 323.088 C 212.149 343.417,182.292 340.651,175.715 318.782 C 175.169 316.968,175.020 313.730,174.829 299.600 L 174.600 282.600 163.048 282.494 C 154.469 282.415,151.347 282.512,150.914 282.871 C 150.041 283.596,150.407 318.181,151.328 322.000 C 156.120 341.874,169.565 355.108,190.000 360.066 C 194.239 361.095,207.069 360.768,211.800 359.511 C 231.480 354.283,245.714 338.894,248.604 319.721 C 249.289 315.178,249.514 217.841,248.841 217.425 C 248.643 217.303,244.098 220.637,238.741 224.835 M248.399 267.900 C 248.399 322.121,248.473 320.280,245.999 327.669 C 241.506 341.091,231.801 351.189,217.846 356.962 C 191.394 367.904,160.183 352.243,152.552 324.200 L 151.464 320.200 151.304 301.700 L 151.143 283.200 162.772 283.200 L 174.400 283.200 174.414 299.300 C 174.425 311.533,174.560 315.928,174.975 317.600 C 181.260 342.895,215.762 344.503,224.125 319.891 C 224.962 317.429,224.973 316.923,225.100 276.737 L 225.229 236.073 226.714 234.957 C 227.870 234.089,238.714 225.550,242.000 222.920 C 244.889 220.607,247.854 218.414,248.100 218.408 C 248.265 218.404,248.400 240.675,248.399 267.900 M316.800 298.349 C 299.915 302.753,294.347 323.052,306.717 335.106 C 318.903 346.980,339.894 340.716,343.402 324.159 C 346.744 308.384,332.247 294.319,316.800 298.349 M328.943 299.422 C 348.745 306.376,347.639 334.824,327.366 340.009 C 309.756 344.513,295.002 326.962,302.590 310.538 C 306.937 301.131,319.145 295.982,328.943 299.422 M317.119 301.972 C 301.348 307.015,299.772 329.036,314.678 336.083 C 330.340 343.488,345.516 326.409,337.435 310.471 C 333.879 303.456,324.608 299.578,317.119 301.972 M327.000 302.472 C 345.679 308.805,341.719 337.200,322.156 337.200 C 306.354 337.200,298.960 318.002,310.354 306.559 C 314.429 302.466,321.711 300.679,327.000 302.472 M314.900 307.648 L 313.600 308.023 313.600 319.980 L 313.600 331.936 314.749 332.189 C 315.380 332.327,316.365 332.324,316.937 332.180 L 317.976 331.919 318.088 327.060 L 318.200 322.200 320.771 322.243 C 323.934 322.296,324.903 323.188,325.595 326.686 C 326.558 331.557,327.177 332.412,329.726 332.394 C 331.640 332.380,331.714 332.023,330.753 327.444 C 330.015 323.925,329.629 322.904,328.576 321.686 L 327.297 320.206 328.996 318.603 C 332.855 314.962,331.267 309.406,325.922 307.853 C 323.450 307.134,317.089 307.016,314.900 307.648 M323.975 307.995 C 330.619 309.255,333.055 316.281,327.788 318.994 C 325.974 319.929,325.967 320.000,327.550 321.521 C 328.882 322.800,329.182 323.433,329.769 326.200 C 330.142 327.960,330.610 329.905,330.810 330.521 L 331.173 331.643 329.288 331.521 L 327.403 331.400 326.871 329.200 C 326.578 327.990,326.153 326.248,325.925 325.328 C 325.249 322.596,324.064 321.800,320.668 321.800 L 317.800 321.800 317.688 326.700 L 317.575 331.600 315.988 331.600 L 314.400 331.600 314.400 320.008 L 314.400 308.415 315.300 308.220 C 318.360 307.554,321.255 307.479,323.975 307.995 M319.400 310.393 L 317.800 310.600 317.800 314.600 L 317.800 318.600 320.367 318.721 C 324.390 318.910,326.800 317.379,326.800 314.635 C 326.800 311.648,323.652 309.844,319.400 310.393 M323.304 311.222 C 328.355 312.625,326.448 318.013,320.787 318.333 L 318.000 318.490 318.000 314.878 C 318.000 312.363,318.152 311.205,318.500 311.065 C 319.374 310.712,321.748 310.790,323.304 311.222 " stroke="none" fill="#c0cc9e" fill-rule="evenodd"></path><path id="path3" d="M191.111 0.293 C 192.051 0.378,193.491 0.377,194.311 0.291 C 195.130 0.205,194.360 0.136,192.600 0.137 C 190.840 0.139,190.170 0.209,191.111 0.293 M205.700 0.291 C 206.525 0.378,207.875 0.378,208.700 0.291 C 209.525 0.205,208.850 0.134,207.200 0.134 C 205.550 0.134,204.875 0.205,205.700 0.291 M185.700 1.076 C 186.085 1.176,186.715 1.176,187.100 1.076 C 187.485 0.975,187.170 0.893,186.400 0.893 C 185.630 0.893,185.315 0.975,185.700 1.076 M212.500 1.076 C 212.885 1.176,213.515 1.176,213.900 1.076 C 214.285 0.975,213.970 0.893,213.200 0.893 C 212.430 0.893,212.115 0.975,212.500 1.076 M110.985 100.800 C 110.985 111.470,111.037 115.835,111.100 110.500 C 111.163 105.165,111.163 96.435,111.100 91.100 C 111.037 85.765,110.985 90.130,110.985 100.800 M0.901 196.600 C 0.905 197.480,0.987 197.793,1.083 197.295 C 1.179 196.798,1.175 196.078,1.075 195.695 C 0.975 195.313,0.896 195.720,0.901 196.600 M399.734 200.000 C 399.734 201.650,399.805 202.325,399.891 201.500 C 399.978 200.675,399.978 199.325,399.891 198.500 C 399.805 197.675,399.734 198.350,399.734 200.000 M0.165 207.200 C 0.165 211.050,0.225 212.625,0.298 210.700 C 0.371 208.775,0.371 205.625,0.298 203.700 C 0.225 201.775,0.165 203.350,0.165 207.200 M399.737 214.600 C 399.739 216.360,399.809 217.030,399.893 216.089 C 399.978 215.149,399.977 213.709,399.891 212.889 C 399.805 212.070,399.736 212.840,399.737 214.600 M0.909 218.000 C 0.909 218.990,0.987 219.395,1.082 218.900 C 1.178 218.405,1.178 217.595,1.082 217.100 C 0.987 216.605,0.909 217.010,0.909 218.000 M398.893 220.400 C 398.893 221.170,398.975 221.485,399.076 221.100 C 399.176 220.715,399.176 220.085,399.076 219.700 C 398.975 219.315,398.893 219.630,398.893 220.400 M110.702 302.300 C 110.895 317.212,111.030 318.584,111.115 306.500 C 111.162 299.845,111.065 294.400,110.900 294.400 C 110.735 294.399,110.646 297.954,110.702 302.300 M352.951 319.600 C 352.951 322.130,353.016 323.165,353.096 321.900 C 353.175 320.635,353.175 318.565,353.096 317.300 C 353.016 316.035,352.951 317.070,352.951 319.600 M319.900 350.295 C 321.055 350.376,322.945 350.376,324.100 350.295 C 325.255 350.214,324.310 350.148,322.000 350.148 C 319.690 350.148,318.745 350.214,319.900 350.295 M187.900 399.082 C 188.395 399.178,189.205 399.178,189.700 399.082 C 190.195 398.987,189.790 398.909,188.800 398.909 C 187.810 398.909,187.405 398.987,187.900 399.082 M209.900 399.082 C 210.395 399.178,211.205 399.178,211.700 399.082 C 212.195 398.987,211.790 398.909,210.800 398.909 C 209.810 398.909,209.405 398.987,209.900 399.082 M196.080 399.898 C 197.994 399.971,201.234 399.971,203.280 399.898 C 205.326 399.826,203.760 399.766,199.800 399.765 C 195.840 399.765,194.166 399.824,196.080 399.898 " stroke="none" fill="#9fd6f4" fill-rule="evenodd"></path><path id="path4" d="M187.600 0.301 C 186.321 0.431,182.666 1.142,180.600 1.663 C 179.720 1.885,178.370 2.224,177.600 2.416 C 174.513 3.188,170.061 4.560,167.600 5.497 C 165.123 6.440,164.278 6.782,161.300 8.044 C 160.585 8.347,160.000 8.731,160.000 8.898 C 160.000 9.064,159.821 9.200,159.603 9.200 C 158.920 9.200,156.000 10.573,156.000 10.894 C 156.000 11.062,155.800 11.200,155.555 11.200 C 154.901 11.200,147.075 16.509,143.600 19.309 C 138.229 23.638,130.527 31.628,127.103 36.424 C 123.246 41.825,123.205 41.892,119.622 48.600 C 118.279 51.114,115.482 58.235,114.593 61.400 C 114.223 62.720,113.770 64.160,113.586 64.600 C 112.972 66.067,112.000 70.633,112.000 72.046 C 112.000 72.813,111.835 73.611,111.632 73.820 C 110.953 74.523,110.737 79.701,110.557 99.681 L 110.378 119.562 96.289 119.758 C 81.725 119.961,77.173 120.186,75.800 120.773 C 75.360 120.961,73.650 121.318,72.000 121.567 C 67.222 122.288,66.406 122.466,66.173 122.844 C 66.052 123.040,65.534 123.200,65.023 123.200 C 62.316 123.200,50.055 128.478,42.985 132.686 C 37.326 136.054,33.526 138.870,28.000 143.790 C 25.857 145.698,19.221 152.950,17.800 154.935 C 17.360 155.550,16.145 157.198,15.100 158.597 C 14.055 159.995,13.200 161.318,13.200 161.537 C 13.200 161.755,13.052 161.993,12.871 162.067 C 12.357 162.276,8.641 169.217,7.019 173.000 C 5.571 176.378,5.301 177.122,4.049 181.200 C 3.340 183.510,2.589 185.953,2.380 186.628 C 2.171 187.304,2.000 188.328,2.000 188.905 C 2.000 189.481,1.820 190.064,1.600 190.200 C 1.380 190.336,1.200 191.145,1.200 191.998 C 1.200 192.850,1.006 194.055,0.769 194.674 C 0.186 196.200,0.187 218.594,0.771 220.126 C 1.007 220.745,1.200 221.772,1.200 222.407 C 1.200 223.043,1.363 223.976,1.562 224.481 C 1.761 224.987,2.152 226.480,2.432 227.800 C 4.213 236.211,11.717 252.660,15.779 257.055 C 16.011 257.306,16.920 258.465,17.800 259.631 C 27.213 272.106,42.752 283.568,57.600 288.986 C 59.250 289.589,60.913 290.243,61.295 290.441 C 61.677 290.638,62.264 290.800,62.600 290.800 C 62.936 290.800,63.523 290.959,63.905 291.152 C 64.893 291.654,69.750 292.800,70.886 292.800 C 71.411 292.800,72.011 292.963,72.220 293.163 C 72.429 293.363,73.590 293.635,74.800 293.767 C 76.010 293.899,78.530 294.170,80.400 294.369 C 82.270 294.568,89.778 294.746,97.084 294.765 L 110.368 294.800 110.558 307.300 C 110.758 320.498,111.029 325.157,111.632 325.780 C 111.835 325.989,112.002 326.799,112.005 327.580 C 112.007 328.361,112.382 330.440,112.838 332.200 C 113.293 333.960,113.765 335.850,113.887 336.400 C 114.008 336.950,114.238 337.580,114.399 337.800 C 114.559 338.020,114.811 338.740,114.960 339.400 C 116.390 345.747,122.343 356.971,128.749 365.400 C 130.884 368.209,140.107 377.545,142.999 379.824 C 144.099 380.691,145.222 381.610,145.495 381.867 C 151.185 387.224,167.448 394.938,178.200 397.381 C 179.740 397.731,181.617 398.217,182.372 398.461 C 183.126 398.704,185.286 398.912,187.172 398.922 C 189.736 398.936,190.197 399.009,189.000 399.213 L 187.400 399.486 189.400 399.568 C 194.121 399.761,212.050 399.616,212.429 399.382 C 212.658 399.240,213.780 398.969,214.923 398.779 C 218.483 398.186,224.284 396.883,225.400 396.426 C 225.840 396.246,227.730 395.600,229.600 394.991 C 232.981 393.889,235.968 392.723,237.295 391.986 C 237.677 391.774,238.247 391.600,238.561 391.600 C 238.876 391.600,239.193 391.465,239.267 391.300 C 239.340 391.135,240.480 390.463,241.800 389.806 C 250.402 385.526,265.159 373.454,269.535 367.116 C 269.883 366.612,270.403 365.959,270.692 365.663 C 272.038 364.286,276.871 357.089,278.255 354.400 C 279.105 352.750,279.935 351.340,280.100 351.267 C 280.265 351.193,280.400 350.952,280.400 350.731 C 280.400 350.510,280.912 349.220,281.538 347.865 C 282.163 346.509,283.268 343.600,283.993 341.400 C 284.718 339.200,285.466 337.087,285.656 336.705 C 285.845 336.323,286.000 335.594,286.000 335.085 C 286.000 334.576,286.195 333.965,286.432 333.728 C 286.670 333.490,286.876 332.239,286.889 330.948 C 286.903 329.559,287.026 328.920,287.191 329.383 C 287.506 330.271,287.988 328.051,287.996 325.674 C 287.998 324.944,288.187 323.998,288.416 323.571 C 288.663 323.108,288.946 317.174,289.116 308.897 L 289.400 295.000 294.800 294.885 C 302.591 294.719,302.454 294.613,298.995 298.140 C 282.337 315.125,291.345 344.735,314.800 350.093 C 317.366 350.679,325.940 350.928,327.600 350.465 C 332.858 348.997,334.073 348.579,336.341 347.460 C 337.738 346.770,339.944 345.349,341.243 344.303 C 342.541 343.256,344.008 342.398,344.502 342.395 C 346.743 342.381,347.285 341.977,347.012 340.523 C 346.798 339.380,347.010 338.751,348.311 336.678 C 350.135 333.770,351.677 330.482,352.332 328.100 C 352.589 327.165,352.993 325.725,353.229 324.900 C 353.920 322.483,353.385 313.348,352.415 311.000 C 352.233 310.560,351.769 309.300,351.383 308.200 C 350.997 307.100,350.348 305.722,349.941 305.138 C 349.533 304.554,349.200 303.948,349.200 303.792 C 349.200 302.373,342.503 295.382,339.052 293.200 C 336.788 291.768,336.193 290.800,337.576 290.800 C 338.003 290.800,338.449 290.644,338.567 290.454 C 338.684 290.264,339.393 290.008,340.141 289.887 C 340.889 289.766,342.277 289.291,343.226 288.833 C 344.174 288.375,345.099 288.000,345.280 288.000 C 347.268 288.000,362.522 279.077,367.609 274.938 C 370.675 272.444,377.980 265.198,380.251 262.400 C 380.876 261.630,381.480 260.910,381.594 260.800 C 382.475 259.946,384.800 256.779,384.800 256.433 C 384.800 256.195,384.952 256.000,385.137 256.000 C 385.322 256.000,385.813 255.370,386.228 254.600 C 386.643 253.830,387.100 253.200,387.244 253.200 C 387.389 253.200,387.616 252.885,387.750 252.500 C 387.883 252.115,388.536 250.900,389.200 249.800 C 391.301 246.321,393.838 240.673,395.489 235.800 C 397.474 229.939,398.000 228.107,398.000 227.048 C 398.000 226.498,398.180 225.936,398.400 225.800 C 398.620 225.664,398.800 225.035,398.800 224.402 C 398.800 223.770,399.000 222.745,399.243 222.126 C 399.808 220.693,400.022 197.475,399.500 194.400 C 395.803 172.644,385.475 154.688,368.382 140.300 C 363.699 136.357,351.015 128.714,346.000 126.811 C 345.230 126.519,343.970 126.019,343.200 125.699 C 340.748 124.682,340.245 124.501,338.054 123.844 C 336.874 123.490,335.579 123.200,335.178 123.200 C 334.776 123.200,334.336 123.020,334.200 122.800 C 334.064 122.580,333.522 122.400,332.995 122.400 C 332.469 122.400,331.624 122.221,331.119 122.002 C 330.259 121.629,328.684 121.365,321.200 120.342 C 319.550 120.117,311.675 119.849,303.700 119.747 L 289.200 119.563 289.158 103.081 C 289.106 82.547,288.664 74.858,287.188 68.800 C 283.113 52.078,276.545 39.782,265.444 28.092 C 263.926 26.492,262.600 25.266,262.499 25.368 C 262.398 25.469,263.013 26.237,263.865 27.076 C 264.718 27.914,266.042 29.395,266.808 30.366 C 267.573 31.337,268.381 32.327,268.601 32.566 C 269.895 33.965,274.885 41.024,276.261 43.400 C 278.147 46.657,281.200 52.737,281.200 53.235 C 281.200 53.424,281.622 54.528,282.139 55.689 C 282.655 56.850,283.393 58.880,283.778 60.200 C 284.164 61.520,284.642 62.913,284.840 63.295 C 285.038 63.677,285.200 64.273,285.200 64.621 C 285.200 64.968,285.404 65.634,285.653 66.100 C 285.903 66.566,286.181 67.931,286.271 69.133 C 286.361 70.335,286.607 71.640,286.818 72.033 C 287.028 72.426,287.200 73.559,287.200 74.550 C 287.200 75.542,287.380 76.464,287.600 76.600 C 287.859 76.760,288.002 84.444,288.006 98.324 C 288.009 110.136,288.151 120.019,288.321 120.286 C 288.552 120.649,292.475 120.810,303.815 120.922 C 318.235 121.065,324.080 121.420,328.600 122.425 C 334.122 123.654,335.868 124.078,336.600 124.370 C 337.040 124.545,338.480 125.015,339.800 125.415 C 341.120 125.814,342.371 126.290,342.580 126.471 C 342.789 126.652,343.222 126.800,343.541 126.800 C 344.349 126.800,356.158 132.659,358.600 134.271 C 369.833 141.686,378.897 150.198,383.814 157.948 C 384.041 158.307,385.242 160.137,386.483 162.015 C 387.724 163.893,389.582 167.223,390.612 169.415 C 391.641 171.607,392.645 173.713,392.842 174.095 C 393.039 174.477,393.200 174.989,393.200 175.234 C 393.200 175.479,393.488 176.336,393.841 177.140 C 394.769 179.255,395.009 179.928,395.786 182.600 C 396.171 183.920,396.646 185.413,396.842 185.919 C 397.039 186.424,397.200 187.243,397.200 187.739 C 397.200 188.234,397.401 188.841,397.646 189.086 C 397.892 189.332,398.172 190.928,398.268 192.634 C 398.365 194.339,398.634 196.090,398.867 196.524 C 399.434 197.584,399.440 217.204,398.874 218.262 C 398.645 218.689,398.383 220.294,398.291 221.829 C 398.200 223.364,397.917 225.008,397.662 225.484 C 397.408 225.959,397.200 226.799,397.200 227.350 C 397.200 227.902,397.020 228.464,396.800 228.600 C 396.580 228.736,396.400 229.217,396.400 229.670 C 396.400 230.400,395.622 233.144,394.775 235.400 C 394.610 235.840,394.176 237.010,393.812 238.000 C 389.045 250.961,379.769 263.795,367.999 273.716 C 362.386 278.447,347.250 286.968,342.213 288.232 C 341.652 288.373,341.320 288.671,341.465 288.904 C 341.607 289.135,341.537 289.209,341.310 289.068 C 340.967 288.856,339.313 289.256,334.900 290.620 C 333.914 290.925,334.431 291.659,336.177 292.431 C 338.560 293.485,344.185 297.693,345.071 299.083 C 345.462 299.698,345.894 300.290,346.031 300.400 C 346.329 300.639,348.162 303.541,349.143 305.326 C 349.528 306.027,350.162 307.500,350.552 308.600 C 350.943 309.700,351.473 311.032,351.731 311.561 C 352.360 312.849,352.373 326.312,351.747 327.639 C 351.497 328.168,350.792 329.860,350.178 331.400 C 349.565 332.940,348.301 335.395,347.369 336.855 C 346.437 338.316,345.702 339.828,345.737 340.217 C 345.776 340.659,345.426 341.027,344.800 341.201 C 344.250 341.354,342.627 342.367,341.194 343.452 C 338.423 345.551,334.011 347.858,331.999 348.260 C 331.331 348.394,330.686 348.660,330.568 348.852 C 330.450 349.043,329.778 349.206,329.076 349.214 C 328.374 349.222,327.350 349.486,326.800 349.800 C 325.424 350.586,318.576 350.586,317.200 349.800 C 316.650 349.486,315.626 349.222,314.924 349.214 C 314.222 349.206,313.536 349.020,313.400 348.800 C 313.264 348.580,312.808 348.400,312.387 348.400 C 310.746 348.400,304.376 344.929,301.096 342.249 C 297.742 339.506,293.702 332.750,292.337 327.600 C 289.457 316.731,294.018 301.794,301.921 296.219 C 303.087 295.396,303.985 294.555,303.916 294.349 C 303.758 293.875,288.836 293.804,288.365 294.275 C 288.175 294.465,287.949 301.005,287.863 308.810 C 287.715 322.100,287.534 324.739,286.426 329.796 C 286.185 330.894,286.061 331.982,286.150 332.213 C 286.238 332.444,286.061 332.975,285.756 333.393 C 285.450 333.811,285.200 334.481,285.200 334.882 C 285.200 335.283,285.035 335.923,284.833 336.305 C 284.632 336.687,284.171 338.080,283.810 339.400 C 283.449 340.720,282.984 342.113,282.777 342.495 C 282.569 342.877,282.400 343.397,282.400 343.652 C 282.400 344.661,276.345 356.449,274.236 359.547 C 271.739 363.215,271.775 363.166,269.891 365.400 C 269.149 366.280,268.277 367.392,267.954 367.871 C 266.951 369.356,261.511 374.912,259.210 376.802 C 258.005 377.791,256.746 378.857,256.411 379.170 C 252.279 383.042,236.345 392.400,233.883 392.400 C 233.596 392.400,233.189 392.555,232.980 392.744 C 232.771 392.933,231.610 393.408,230.400 393.799 C 229.190 394.190,227.840 394.645,227.400 394.810 C 226.960 394.976,225.430 395.418,224.000 395.793 C 222.570 396.168,221.087 396.638,220.705 396.838 C 220.323 397.037,219.457 397.200,218.779 397.200 C 218.102 397.200,217.155 397.410,216.675 397.667 C 216.196 397.923,214.273 398.198,212.402 398.277 C 210.531 398.356,208.478 398.596,207.840 398.810 C 206.340 399.314,193.275 399.318,191.760 398.815 C 191.122 398.604,189.062 398.359,187.181 398.273 C 185.301 398.186,183.378 397.909,182.908 397.658 C 182.437 397.406,181.511 397.200,180.850 397.200 C 180.188 397.200,179.536 397.020,179.400 396.800 C 179.264 396.580,178.774 396.400,178.312 396.400 C 177.467 396.400,173.696 395.392,172.200 394.766 C 171.760 394.581,170.410 394.128,169.200 393.758 C 167.990 393.387,166.829 392.930,166.620 392.742 C 166.411 392.554,166.001 392.400,165.708 392.400 C 164.416 392.400,151.563 385.615,150.111 384.167 C 149.841 383.898,148.941 383.265,148.111 382.760 C 147.280 382.255,146.510 381.733,146.400 381.600 C 146.290 381.467,145.480 380.829,144.600 380.182 C 139.255 376.256,133.784 370.732,128.942 364.375 C 125.025 359.233,118.400 347.886,118.400 346.321 C 118.400 346.140,118.058 345.228,117.641 344.296 C 117.224 343.363,116.572 341.610,116.193 340.400 C 115.814 339.190,115.345 337.887,115.152 337.505 C 114.958 337.123,114.800 336.461,114.800 336.034 C 114.800 335.607,114.575 335.019,114.300 334.729 C 114.025 334.438,113.742 333.309,113.672 332.221 C 113.601 331.132,113.376 329.929,113.172 329.547 C 112.967 329.165,112.800 328.157,112.800 327.306 C 112.800 326.456,112.586 325.546,112.325 325.285 C 111.981 324.941,111.811 320.753,111.707 310.105 C 111.628 302.017,111.489 295.040,111.399 294.600 C 111.239 293.818,110.969 293.803,99.318 293.935 C 86.813 294.077,76.720 293.400,71.000 292.035 C 70.120 291.825,68.590 291.462,67.600 291.229 C 65.160 290.654,62.767 289.976,61.800 289.585 C 61.360 289.408,60.100 288.959,59.000 288.589 C 50.556 285.746,37.549 278.253,30.596 272.227 C 21.861 264.655,14.637 255.345,9.936 245.600 C 7.360 240.260,6.843 239.077,6.568 237.896 C 6.427 237.289,6.151 236.694,5.956 236.573 C 5.760 236.452,5.600 235.943,5.600 235.443 C 5.600 234.943,5.474 234.407,5.320 234.253 C 4.900 233.834,3.613 229.529,3.606 228.524 C 3.603 228.042,3.420 227.536,3.200 227.400 C 2.980 227.264,2.800 226.612,2.800 225.950 C 2.800 225.289,2.585 224.354,2.321 223.874 C 2.058 223.393,1.784 221.560,1.711 219.800 C 1.639 218.040,1.405 215.970,1.192 215.200 C 0.692 213.393,0.682 200.761,1.181 199.451 C 1.390 198.901,1.631 196.812,1.716 194.810 C 1.802 192.788,2.078 190.962,2.335 190.705 C 2.591 190.449,2.800 189.657,2.800 188.944 C 2.800 188.231,2.980 187.536,3.200 187.400 C 3.420 187.264,3.600 186.774,3.600 186.312 C 3.600 184.995,5.039 180.286,6.047 178.305 C 6.241 177.923,6.400 177.411,6.400 177.166 C 6.400 175.482,14.859 159.287,16.410 158.000 C 16.543 157.890,17.708 156.360,18.998 154.600 C 24.803 146.685,36.106 137.100,45.400 132.211 C 46.720 131.516,48.160 130.736,48.600 130.477 C 49.904 129.709,56.415 126.800,56.829 126.800 C 57.039 126.800,57.523 126.625,57.905 126.410 C 59.058 125.764,64.407 124.105,67.600 123.403 C 69.250 123.041,71.320 122.571,72.200 122.359 C 76.044 121.431,82.366 121.055,96.295 120.922 L 111.189 120.781 111.383 119.891 C 111.489 119.401,111.627 109.064,111.688 96.920 C 111.774 79.912,111.915 74.725,112.300 74.340 C 112.575 74.065,112.800 73.144,112.800 72.294 C 112.800 71.443,112.973 70.425,113.183 70.031 C 113.394 69.637,113.635 68.522,113.718 67.553 C 113.802 66.584,114.079 65.400,114.335 64.922 C 114.591 64.444,114.800 63.768,114.800 63.421 C 114.800 63.073,114.958 62.477,115.152 62.095 C 115.345 61.713,115.813 60.410,116.192 59.200 C 116.570 57.990,117.312 56.050,117.840 54.889 C 118.368 53.728,118.800 52.631,118.800 52.451 C 118.800 50.799,126.638 37.835,130.134 33.704 C 131.050 32.622,132.250 31.187,132.800 30.517 C 135.142 27.661,138.431 24.413,141.626 21.800 C 145.297 18.797,147.973 16.800,148.323 16.800 C 148.549 16.800,148.793 16.653,148.867 16.474 C 149.451 15.043,162.068 8.426,168.800 6.020 C 169.570 5.744,170.560 5.377,171.000 5.204 C 171.440 5.030,172.970 4.582,174.400 4.207 C 175.830 3.832,177.313 3.362,177.695 3.162 C 178.077 2.963,178.853 2.800,179.421 2.800 C 179.988 2.800,180.823 2.602,181.275 2.360 C 181.727 2.118,183.470 1.830,185.148 1.720 C 186.827 1.609,188.539 1.338,188.954 1.117 C 190.005 0.556,209.107 0.578,210.849 1.142 C 211.592 1.383,213.521 1.655,215.136 1.746 C 216.751 1.837,218.272 2.112,218.516 2.356 C 218.760 2.600,219.466 2.800,220.085 2.800 C 220.704 2.800,221.523 2.966,221.905 3.169 C 222.287 3.372,223.770 3.831,225.200 4.189 C 226.630 4.547,228.160 4.997,228.600 5.188 C 229.040 5.379,230.750 6.029,232.400 6.631 C 236.385 8.086,242.495 10.981,245.108 12.652 C 246.267 13.393,247.300 14.000,247.403 14.000 C 247.823 14.000,254.829 19.156,258.115 21.883 C 263.649 26.475,263.037 25.393,257.162 20.196 C 256.413 19.533,254.810 18.279,253.600 17.409 C 252.390 16.538,251.310 15.724,251.200 15.598 C 250.107 14.351,239.953 8.693,235.400 6.795 C 232.136 5.434,228.208 4.000,227.745 4.000 C 227.439 4.000,226.877 3.827,226.495 3.616 C 225.797 3.230,222.924 2.515,220.496 2.122 C 219.779 2.006,219.094 1.751,218.973 1.556 C 218.852 1.360,218.145 1.200,217.402 1.200 C 216.660 1.200,215.545 0.997,214.926 0.748 C 213.935 0.351,190.825 -0.028,187.600 0.301 M187.100 1.076 C 186.715 1.176,186.085 1.176,185.700 1.076 C 185.315 0.975,185.630 0.893,186.400 0.893 C 187.170 0.893,187.485 0.975,187.100 1.076 M213.900 1.076 C 213.515 1.176,212.885 1.176,212.500 1.076 C 212.115 0.975,212.430 0.893,213.200 0.893 C 213.970 0.893,214.285 0.975,213.900 1.076 M198.700 9.089 C 199.415 9.178,200.585 9.178,201.300 9.089 C 202.015 9.001,201.430 8.928,200.000 8.928 C 198.570 8.928,197.985 9.001,198.700 9.089 M198.905 39.487 C 199.514 39.579,200.414 39.577,200.905 39.482 C 201.397 39.387,200.900 39.311,199.800 39.314 C 198.700 39.317,198.297 39.395,198.905 39.487 M111.100 110.500 C 111.037 115.835,110.985 111.470,110.985 100.800 C 110.985 90.130,111.037 85.765,111.100 91.100 C 111.163 96.435,111.163 105.165,111.100 110.500 M248.893 84.000 C 248.893 84.770,248.975 85.085,249.076 84.700 C 249.176 84.315,249.176 83.685,249.076 83.300 C 248.975 82.915,248.893 83.230,248.893 84.000 M120.093 84.400 C 120.093 85.170,120.175 85.485,120.276 85.100 C 120.376 84.715,120.376 84.085,120.276 83.700 C 120.175 83.315,120.093 83.630,120.093 84.400 M248.901 88.200 C 248.905 89.080,248.987 89.393,249.083 88.895 C 249.179 88.398,249.175 87.678,249.075 87.295 C 248.975 86.913,248.896 87.320,248.901 88.200 M96.274 129.499 C 100.494 129.564,107.514 129.564,111.874 129.500 C 116.233 129.435,112.780 129.382,104.200 129.382 C 95.620 129.382,92.053 129.435,96.274 129.499 M287.673 129.499 C 292.004 129.564,299.204 129.564,303.673 129.500 C 308.143 129.435,304.600 129.382,295.800 129.382 C 287.000 129.382,283.343 129.435,287.673 129.499 M367.583 152.500 C 368.564 153.545,369.419 154.400,369.483 154.400 C 369.784 154.400,369.466 154.041,367.700 152.383 L 365.800 150.600 367.583 152.500 M1.083 197.295 C 0.987 197.793,0.905 197.480,0.901 196.600 C 0.896 195.720,0.975 195.313,1.075 195.695 C 1.175 196.078,1.179 196.798,1.083 197.295 M359.731 207.400 C 359.733 208.940,359.805 209.521,359.892 208.691 C 359.979 207.861,359.977 206.601,359.889 205.891 C 359.800 205.181,359.729 205.860,359.731 207.400 M63.724 207.400 C 63.726 208.720,63.801 209.212,63.890 208.493 C 63.979 207.774,63.977 206.694,63.886 206.093 C 63.795 205.492,63.722 206.080,63.724 207.400 M390.924 207.400 C 390.926 208.720,391.001 209.212,391.090 208.493 C 391.179 207.774,391.177 206.694,391.086 206.093 C 390.995 205.492,390.922 206.080,390.924 207.400 M1.082 218.900 C 0.987 219.395,0.909 218.990,0.909 218.000 C 0.909 217.010,0.987 216.605,1.082 217.100 C 1.178 217.595,1.178 218.405,1.082 218.900 M399.076 221.100 C 398.975 221.485,398.893 221.170,398.893 220.400 C 398.893 219.630,398.975 219.315,399.076 219.700 C 399.176 220.085,399.176 220.715,399.076 221.100 M86.900 285.076 C 87.285 285.176,87.915 285.176,88.300 285.076 C 88.685 284.975,88.370 284.893,87.600 284.893 C 86.830 284.893,86.515 284.975,86.900 285.076 M312.100 285.076 C 312.485 285.176,313.115 285.176,313.500 285.076 C 313.885 284.975,313.570 284.893,312.800 284.893 C 312.030 284.893,311.715 284.975,312.100 285.076 M111.115 306.500 C 111.030 318.584,110.895 317.212,110.702 302.300 C 110.646 297.954,110.735 294.399,110.900 294.400 C 111.065 294.400,111.162 299.845,111.115 306.500 M319.705 311.087 C 320.314 311.179,321.214 311.177,321.705 311.082 C 322.197 310.987,321.700 310.911,320.600 310.914 C 319.500 310.917,319.097 310.995,319.705 311.087 M120.093 315.200 C 120.093 315.970,120.175 316.285,120.276 315.900 C 120.376 315.515,120.376 314.885,120.276 314.500 C 120.175 314.115,120.093 314.430,120.093 315.200 M353.096 321.900 C 353.016 323.165,352.951 322.130,352.951 319.600 C 352.951 317.070,353.016 316.035,353.096 317.300 C 353.175 318.565,353.175 320.635,353.096 321.900 M299.709 319.600 C 299.709 320.590,299.787 320.995,299.882 320.500 C 299.978 320.005,299.978 319.195,299.882 318.700 C 299.787 318.205,299.709 318.610,299.709 319.600 M321.100 341.482 C 321.595 341.578,322.405 341.578,322.900 341.482 C 323.395 341.387,322.990 341.309,322.000 341.309 C 321.010 341.309,320.605 341.387,321.100 341.482 M211.700 399.082 C 211.205 399.178,210.395 399.178,209.900 399.082 C 209.405 398.987,209.810 398.909,210.800 398.909 C 211.790 398.909,212.195 398.987,211.700 399.082 " stroke="none" fill="#c1e5f7" fill-rule="evenodd"></path></g></svg>