<?xml version="1.0" standalone="no"?>
<!DOCTYPE svg PUBLIC "-//W3C//DTD SVG 20010904//EN"
 "http://www.w3.org/TR/2001/REC-SVG-20010904/DTD/svg10.dtd">
<svg version="1.0" xmlns="http://www.w3.org/2000/svg"
 width="400.000000pt" height="400.000000pt" viewBox="0 0 400.000000 400.000000"
 preserveAspectRatio="xMidYMid meet">

<g transform="translate(0.000000,400.000000) scale(0.100000,-0.100000)"
fill="#000000" stroke="none">
<path d="M0 2000 l0 -2000 2000 0 2000 0 0 2000 0 2000 -2000 0 -2000 0 0
-2000z m574 1734 c14 -6 16 -88 16 -830 l0 -824 655 0 655 0 0 825 0 825 23 5
c12 3 56 5 97 3 l75 -3 3 -827 2 -828 655 0 655 0 0 818 c0 623 3 821 12 830
7 7 44 12 95 12 71 0 84 -3 93 -19 14 -27 14 -3455 0 -3482 -9 -16 -22 -19
-93 -19 -51 0 -88 5 -95 12 -9 9 -12 207 -12 830 l0 818 -655 0 -655 0 0 -824
c0 -742 -2 -824 -16 -830 -29 -11 -160 -6 -172 6 -9 9 -12 207 -12 830 l0 818
-655 0 -655 0 0 -824 c0 -742 -2 -824 -16 -830 -29 -11 -160 -6 -172 6 -18 18
-17 3494 1 3501 18 8 152 8 171 1z m761 -415 c105 -19 184 -77 231 -170 52
-104 51 -209 -3 -317 -32 -64 -78 -106 -153 -140 -46 -22 -74 -27 -167 -30
l-112 -4 -3 -127 -3 -126 -95 0 -95 0 -3 454 c-2 357 0 456 10 463 19 12 325
10 393 -3z m1585 -20 c163 -76 237 -263 171 -432 -22 -56 -83 -132 -125 -154
-18 -10 -14 -20 58 -138 46 -76 76 -136 74 -149 -3 -19 -10 -21 -97 -24 -55
-2 -98 2 -106 8 -7 6 -45 64 -85 130 l-73 120 -48 0 -48 0 -3 -127 -3 -128
-95 0 -95 0 -3 449 c-2 341 1 452 10 463 10 13 46 14 213 11 190 -3 203 -5
255 -29z m-1681 -2041 c75 -136 140 -250 144 -254 4 -4 7 99 7 230 0 144 4
245 10 257 9 16 22 19 86 19 126 0 114 48 114 -463 0 -331 -3 -446 -12 -455
-8 -8 -45 -12 -99 -12 -80 0 -89 2 -106 24 -10 13 -76 129 -148 259 l-130 235
-3 -246 c-1 -161 -6 -250 -13 -259 -13 -15 -155 -19 -177 -5 -10 7 -13 101
-12 457 0 246 3 452 6 457 3 5 49 7 101 6 l96 -3 136 -247z"/>
<path d="M1130 2996 l0 -146 86 0 c101 0 141 18 169 77 28 58 16 126 -29 171
-36 37 -37 37 -131 40 l-95 4 0 -146z"/>
<path d="M2640 2995 l0 -145 85 0 c132 0 185 41 185 144 0 102 -57 146 -189
146 l-81 0 0 -145z"/>
</g>
</svg>
